HIERARCHY
ROOT hip
{
	OFFSET 0.000000 0.000000 0.000000 
	CHANNELS 6 Xposition Yposition Zposition Xrotation Zrotation Yrotation
	JOINT abdomen
	{
		OFFSET 0.000000 3.402643 0.000000 
		CHANNELS 3 Xrotation Zrotation Yrotation
		JOINT chest
		{
			OFFSET 0.000000 8.438565 -0.680529 
			CHANNELS 3 Xrotation Zrotation Yrotation
			JOINT neck
			{
				OFFSET 0.000000 10.207942 -0.272212 
				CHANNELS 3 Xrotation Zrotation Yrotation
				JOINT head
				{
					OFFSET 0.000000 3.130431 0.000000 
					CHANNELS 3 Xrotation Zrotation Yrotation
					End Site
					{
						OFFSET 0.000000 3.130435 0.000000 
					}
				}
			}
			JOINT lCollar
			{
				OFFSET 3.470700 6.669187 -0.816635 
				CHANNELS 3 Yrotation Zrotation Xrotation
				JOINT lShldr
				{
					OFFSET 3.198488 0.000000 0.000000 
					CHANNELS 3 Zrotation Yrotation Xrotation
					JOINT lForeArm
					{
						OFFSET 10.139888 0.000000 0.000000 
						CHANNELS 3 Yrotation Zrotation Xrotation
						JOINT lHand
						{
							OFFSET 8.370511 0.000000 0.000000 
							CHANNELS 3 Zrotation Yrotation Xrotation
							End Site
							{
								OFFSET 4.083176 0.000000 0.000000 
							}
						}
					}
				}
			}
			JOINT rCollar
			{
				OFFSET -3.470700 6.669187 -0.816635 
				CHANNELS 3 Yrotation Zrotation Xrotation
				JOINT rShldr
				{
					OFFSET -3.198488 0.000000 0.000000 
					CHANNELS 3 Zrotation Yrotation Xrotation
					JOINT rForeArm
					{
						OFFSET -10.139888 0.000000 0.000000 
						CHANNELS 3 Yrotation Zrotation Xrotation
						JOINT rHand
						{
							OFFSET -8.370511 0.000000 0.000000 
							CHANNELS 3 Zrotation Yrotation Xrotation
							End Site
							{
								OFFSET -4.083176 0.000000 0.000000 
							}
						}
					}
				}
			}
		}
	}
	JOINT lThigh
	{
		OFFSET 5.308129 -1.633274 1.361059 
		CHANNELS 3 Xrotation Zrotation Yrotation
		JOINT lShin
		{
			OFFSET -2.041588 -20.007561 0.000000 
			CHANNELS 3 Xrotation Zrotation Yrotation
			JOINT lFoot
			{
				OFFSET 0.000000 -19.190928 -1.224953 
				CHANNELS 3 Xrotation Yrotation Zrotation
				End Site
				{
					OFFSET 0.000000 -2.449906 4.627600 
				}
			}
		}
	}
	JOINT rThigh
	{
		OFFSET -5.308129 -1.633274 1.361059 
		CHANNELS 3 Xrotation Zrotation Yrotation
		JOINT rShin
		{
			OFFSET 2.041588 -20.007561 0.000000 
			CHANNELS 3 Xrotation Zrotation Yrotation
			JOINT rFoot
			{
				OFFSET 0.000000 -19.190928 -1.224953 
				CHANNELS 3 Xrotation Yrotation Zrotation
				End Site
				{
					OFFSET 0.000000 -2.449906 4.627600 
				}
			}
		}
	}
}
MOTION
Frames: 18
Frame Time: 0.033333
-3.096133 48.547379 3.160383 0.104795 0.497893 -1.425812 0.000000 0.000000 0.000000 -4.077911 -1.220444 1.181788 5.340260 -1.435216 1.230816 5.786307 -0.673812 0.400363 0.304234 8.893046 -3.105017 -10.344196 2.394038 -18.575108 0.721251 -2.806524 25.695850 -2.242827 -3.485612 -3.259185 0.682180 -11.568069 -3.178765 9.603190 -9.741503 -2.937269 -2.240299 2.312279 8.478786 0.742146 3.321204 -3.369678 0.028362 7.668480 4.512193 12.007098 -3.125336 4.153927 -11.022695 0.569076 -5.941404 6.185741 -11.857410 -10.231174 2.465721 2.317259 -3.305384 -6.073104 -0.561554 10.227164 
-3.109476 48.542362 3.190427 0.105559 0.497911 -1.337925 0.000000 0.000000 0.000000 -4.109828 -1.347370 1.181773 5.356125 -1.142310 1.240377 5.967424 -0.878859 0.595633 0.392216 9.484997 -3.149895 -10.959218 2.350894 -18.330435 0.685218 -2.874852 25.433516 -1.829487 -3.686865 -3.276075 0.509277 -11.373607 -3.215270 9.693889 -9.533278 -3.045445 -2.222767 2.343286 8.215182 0.768571 3.537941 -3.364331 -0.010045 7.641872 4.451341 12.074813 -3.037163 4.274208 -11.055235 0.594958 -6.059144 6.169441 -11.862147 -10.280132 2.669859 2.375278 -3.322265 -6.237264 -0.583209 10.211761 
-3.124820 48.566368 3.194255 0.105928 0.536991 -1.201211 0.000000 0.000000 0.000000 -4.068288 -1.269279 1.142730 5.308982 -1.503548 1.250338 5.883117 -0.693337 0.458951 0.419217 8.466355 -3.110200 -10.057787 2.239544 -18.122234 0.708339 -3.141194 25.155890 -1.929108 -3.477867 -3.287515 0.552082 -11.619673 -3.178873 9.853712 -9.523273 -3.082417 -2.259614 2.350458 8.136980 0.729506 3.369368 -3.369451 0.175130 7.584951 4.358409 11.539042 -2.978891 4.158427 -10.718482 0.562398 -6.026542 6.577725 -11.782147 -10.335526 1.830512 2.343748 -3.567281 -5.805652 -0.542786 10.216751 
-3.127970 48.556057 3.201506 0.155590 0.566310 -1.054733 0.000000 0.000000 0.000000 -4.139458 -1.386433 1.162242 5.374930 -1.298579 1.123201 5.753229 -0.976526 0.497975 0.219804 8.995599 -3.154782 -10.807069 2.328688 -18.203930 0.690601 -2.977981 25.239985 -1.860174 -3.483688 -3.291308 0.640020 -11.107156 -3.222875 9.395410 -9.656180 -2.634098 -2.260753 2.524099 7.659256 0.942634 3.411212 -3.356214 0.028675 7.558770 4.258614 11.702147 -2.948319 3.964999 -10.816717 0.582844 -6.061425 6.403117 -11.861174 -10.378371 2.261084 2.365784 -3.571135 -6.069610 -0.575182 10.221002 
-3.132997 48.555920 3.210464 0.175853 0.546789 -1.015579 0.000000 0.000000 0.000000 -4.118285 -1.327861 1.142724 5.528075 -1.396192 1.172003 5.355148 -0.771460 0.458943 0.291385 8.727599 -3.142109 -10.741023 2.331794 -18.247458 0.716369 -2.967721 25.396511 -2.081480 -3.555007 -3.275303 0.503737 -11.128775 -3.213406 9.319076 -9.395019 -2.666752 -2.319811 2.503137 8.909628 1.141955 3.354404 -3.346172 -0.020122 7.568071 4.239675 11.702054 -2.890131 4.116230 -10.784054 0.592711 -6.110203 6.402603 -11.869905 -10.429103 2.204581 2.427388 -3.613480 -6.027303 -0.554138 10.175797 
-3.130224 48.545494 3.219146 0.146430 0.576088 -0.976611 0.000000 0.000000 0.000000 -4.080072 -1.347379 1.162247 5.568475 -1.376684 1.132955 5.129756 -0.869113 0.458932 0.157283 8.558568 -3.092352 -10.743361 2.461465 -18.573967 0.715625 -2.762581 25.382296 -2.284121 -3.448868 -3.258496 0.503371 -11.030563 -3.192377 9.197379 -9.218782 -2.354376 -2.373891 2.699214 8.422416 0.519859 3.268985 -3.382593 -0.039763 7.555466 4.268479 11.890036 -2.930228 4.003278 -10.918943 0.610400 -6.060198 6.218476 -11.930390 -10.429296 2.651715 2.454618 -3.527919 -6.267866 -0.592052 10.187475 
-3.122912 48.563866 3.225614 0.120322 0.468703 -0.810520 0.000000 0.000000 0.000000 -4.055576 -1.249800 1.025573 5.621332 -1.308388 1.015806 5.020043 -1.064413 0.497961 0.144194 8.471302 -3.100554 -10.825612 2.491439 -18.487938 0.692399 -2.784184 25.362806 -2.066193 -3.661259 -3.262524 0.580398 -10.946351 -3.171296 9.151883 -9.279287 -2.542486 -2.140013 2.613869 8.149191 0.994899 3.355589 -3.354529 0.028961 7.626337 4.272873 11.695547 -2.891222 3.941260 -10.789402 0.579455 -6.030195 6.889886 -11.731909 -10.519290 1.424048 2.464223 -3.826302 -5.629340 -0.536446 10.161123 
-3.099005 48.570404 3.215966 0.063326 0.410125 -0.703107 0.000000 0.000000 0.000000 -3.966027 -1.191226 0.996284 5.602539 -1.279100 1.006045 5.305309 -0.937472 0.439394 0.065849 8.347778 -3.010741 -11.125845 2.489089 -18.536640 0.628952 -2.583235 25.994083 -2.372318 -3.610659 -3.255952 0.586978 -10.778640 -3.079500 9.261552 -9.320805 -3.083616 -1.889110 2.301935 8.607275 0.580176 3.243198 -3.379646 0.058079 7.657875 4.255157 11.706626 -2.891680 3.687104 -10.812271 0.564667 -5.972767 7.323504 -11.708377 -10.759878 0.839080 2.662000 -3.814554 -5.375990 -0.490813 10.067115 
-3.081478 48.553825 3.212182 0.308389 0.371071 -0.634752 0.000000 0.000000 0.000000 -4.140110 -1.093585 0.996099 5.521944 -1.406029 1.015799 5.145086 -0.390623 0.205073 -0.040852 8.002403 -3.146038 -11.542388 2.465382 -18.494814 0.502329 -2.324333 26.467512 -2.320617 -2.981877 -3.276571 0.519291 -10.621399 -3.227118 9.536721 -9.225601 -4.002059 -1.603897 1.916337 8.352042 0.672115 3.013859 -3.378181 -0.400448 7.648524 4.147306 12.153494 -2.803194 3.744107 -11.037732 0.585462 -6.020144 6.930316 -11.724970 -10.717964 1.160042 2.726551 -3.922003 -5.543746 -0.500005 10.078819 
-3.022064 48.589817 3.197584 0.267216 0.410109 -0.869118 0.000000 0.000000 0.000000 -4.100020 -0.986164 1.044935 5.418512 -1.513360 1.162478 5.633631 -0.302732 0.214841 1.512677 7.877998 -3.183957 -13.083687 0.553009 -18.580259 0.360773 -2.150476 26.991327 -1.927581 -2.157743 -3.325740 0.676540 -10.423643 -3.175458 10.162627 -8.981429 -5.054215 -1.218796 1.456956 7.940606 -0.120181 2.829903 -3.419583 -0.098203 7.449458 4.064764 11.509606 -2.783613 4.488745 -10.611465 0.559982 -6.004460 7.786591 -11.751083 -10.913222 -0.488248 2.779638 -3.293189 -4.800133 -0.435016 10.042107 
-2.944666 48.627945 3.152273 0.338292 0.263649 -0.761711 0.000000 0.000000 0.000000 -3.959782 -1.035055 0.800827 5.280377 -0.869049 0.830131 5.854691 -0.654280 0.410130 -0.035603 7.541393 -3.005271 -14.575982 2.142884 -17.847197 0.207284 -1.601975 26.797359 -2.053905 -3.191406 -3.281524 0.069066 -9.069429 -3.093802 10.932794 -7.478367 -7.387331 -0.797566 0.684562 7.372939 -1.770333 2.083939 -3.510691 -0.127287 7.367066 3.961035 11.186167 -2.656167 4.724343 -10.374685 0.521074 -5.943899 8.217741 -11.675295 -11.057462 -1.440913 2.919662 -3.269433 -4.325549 -0.412605 10.026914 
-2.857563 48.653091 3.098001 0.573376 0.234358 -0.683588 0.000000 0.000000 0.000000 -3.995571 -1.113225 0.576253 5.094057 -0.917962 0.224581 6.449602 0.917952 -0.341753 -0.385322 6.758214 -3.038982 -16.782682 2.025730 -18.032825 0.117791 -0.859789 26.848751 -1.691681 -4.197447 -3.277288 0.169524 -7.382978 -3.091110 11.963873 -6.578784 -9.174485 -0.421984 -0.089929 6.835756 -3.300329 2.438809 -3.589524 -0.361337 7.241588 3.846086 10.971937 -2.646719 4.875014 -10.192383 0.552631 -5.817716 7.963001 -11.799770 -11.144985 -1.297888 3.024070 -2.911479 -4.424220 -0.412171 10.051179 
-2.754093 48.665554 2.991231 0.953835 0.292951 -0.624992 0.000000 0.000000 0.000000 -4.078831 -1.132794 0.331966 4.601271 -1.396438 -0.469087 7.571919 3.250861 -1.486416 -0.590866 4.423282 -3.114808 -18.869673 1.454265 -19.812916 0.035127 0.546530 27.461891 -1.181372 -5.390473 -3.284156 0.411559 -6.585005 -3.144529 14.636428 -5.403971 -11.283884 -0.157536 -1.073717 7.315673 -5.535326 3.255387 -3.732253 -0.888634 6.947873 3.499052 10.934957 -2.579728 5.350834 -10.024907 0.483468 -5.708181 7.479626 -12.040350 -11.237781 -1.256472 3.134979 -2.697167 -4.371497 -0.408971 10.103854 
-2.621564 48.676758 2.893571 0.869367 -0.019530 -0.664066 0.000000 0.000000 0.000000 -3.703494 -0.908200 0.146466 4.491184 -1.571805 -1.387268 7.790771 5.198791 -2.823928 -0.673808 2.027297 -2.785039 -22.306200 2.371218 -21.262028 -4.546803 1.685337 26.448622 -0.708278 -5.431559 -3.317142 0.617737 -4.996694 -2.783080 17.540789 -3.689763 -13.569203 -0.007154 -2.000381 9.351544 -7.376649 4.820073 -3.917406 -1.161621 7.208918 3.742282 11.495936 -2.724681 5.108630 -10.256163 0.517865 -5.478779 7.591589 -11.955303 -11.310854 -1.559527 3.284029 -2.448232 -4.088799 -0.407869 10.127520 
-2.468377 48.691830 2.777857 1.030967 -0.488249 -0.654356 0.000000 0.000000 0.000000 -3.524342 -1.025390 -0.058759 4.299016 -0.653541 -2.754173 8.416675 5.769905 -3.602129 -1.123332 1.302649 -2.617314 -29.352465 6.862333 -22.447266 -17.106951 2.615428 24.263870 -1.241223 -3.174145 -3.335337 1.003415 -0.935285 -2.607296 19.893419 -8.675361 -11.648826 14.513025 -1.879432 8.917658 -8.981918 2.909015 -3.903320 -1.834531 7.483284 3.760213 12.260436 -2.596674 5.140440 -10.529452 0.509579 -5.378479 7.330132 -11.754301 -11.173491 -1.561980 3.453443 -2.228874 -3.990096 -0.355084 10.210012 
-2.278325 48.680637 2.634006 1.007013 -0.800707 -0.781447 0.000000 0.000000 0.000000 -2.963307 -1.064439 -0.293100 3.960981 -0.506591 -3.974799 9.331839 7.260555 -4.734803 -1.221266 -1.039136 -2.138558 -35.004211 8.543171 -23.510262 -24.198271 3.046850 20.952267 0.301789 -1.439563 -3.444043 1.052831 1.778694 -2.119906 24.656343 -10.673176 -13.768335 24.492653 -2.699916 13.134122 -8.300788 2.199466 -3.830199 -2.391702 7.680766 3.889543 13.229286 -2.785342 4.788716 -10.969824 0.501783 -5.009226 6.903306 -11.757589 -11.028196 -0.937932 3.454896 -2.030465 -4.114101 -0.424810 10.427958 
-2.054187 48.685234 2.478552 0.851112 -1.142385 -1.055062 0.000000 0.000000 0.000000 -2.335457 -1.035123 -0.459086 3.822303 -0.476579 -5.156477 10.898745 8.648203 -5.757634 -1.103394 -2.861780 -1.553943 -41.926151 8.694654 -24.800074 -28.988237 3.488157 16.805243 1.194568 0.787028 -3.480082 1.205383 4.724388 -1.587604 27.125601 -12.196024 -8.215412 31.795446 -1.304957 9.671431 -9.530691 0.594471 -3.782608 -2.800446 7.862453 4.163429 14.006127 -2.930518 5.230318 -11.140614 0.468500 -4.767664 6.440839 -11.743052 -10.920050 -0.282764 3.458467 -1.760573 -4.166967 -0.411773 10.614969 
-1.826032 48.600681 2.283125 0.423742 -1.561912 -1.573012 0.000000 0.000000 0.000000 -1.425038 -1.044869 -0.576432 4.165159 -0.397959 -6.318546 12.186692 9.564841 -6.675109 -0.944627 -5.262094 -0.715170 -48.194134 8.482606 -25.522818 -32.324638 4.059540 15.336314 0.640837 2.945215 -3.497724 1.293483 7.346130 -0.798074 30.648220 -11.706547 -4.975844 35.188461 -0.410625 10.766786 -8.606477 0.688889 -3.747976 -3.777609 8.403175 4.594882 16.131342 -3.262143 4.719046 -11.824465 0.461943 -4.344593 5.972102 -11.703039 -10.679316 0.819710 3.356424 -1.401474 -4.392358 -0.445039 10.851689 
